<?xml version="1.0" standalone="no"?>
<!DOCTYPE svg PUBLIC "-//W3C//DTD SVG 20010904//EN"
 "http://www.w3.org/TR/2001/REC-SVG-20010904/DTD/svg10.dtd">
<svg version="1.0" xmlns="http://www.w3.org/2000/svg"
 width="512.000000pt" height="512.000000pt" viewBox="0 0 512.000000 512.000000"
 preserveAspectRatio="xMidYMid meet">

<g transform="translate(0.000000,512.000000) scale(0.100000,-0.100000)"
fill="#000000" stroke="none">
<path d="M3287 5109 c-194 -22 -371 -75 -552 -165 -170 -84 -294 -174 -430
-309 -133 -133 -224 -259 -304 -420 -75 -149 -114 -262 -148 -424 -23 -109
-26 -151 -27 -311 0 -137 5 -211 18 -285 48 -266 153 -509 307 -714 l49 -66
-137 -137 -138 -138 -105 105 -105 105 -858 -858 -857 -857 318 -318 317 -317
858 858 857 857 -105 105 -105 105 138 138 137 137 65 -48 c208 -156 449 -260
715 -308 121 -22 400 -25 520 -6 357 57 667 215 920 467 135 136 225 260 309
430 196 395 228 819 94 1245 -40 129 -143 335 -225 450 -135 189 -350 379
-560 492 -286 155 -646 225 -966 187z m440 -313 c413 -82 773 -358 953 -731
100 -206 134 -357 134 -595 1 -186 -12 -265 -71 -442 -66 -199 -180 -376 -347
-535 -192 -183 -411 -296 -681 -349 -134 -27 -376 -25 -515 5 -543 116 -947
528 -1056 1076 -25 124 -25 377 0 495 40 190 107 353 207 505 69 105 261 297
364 364 178 116 381 193 580 220 98 14 334 6 432 -13z m-1907 -2981 l105 -105
-643 -643 -642 -642 -107 108 -108 107 640 640 c352 352 642 640 645 640 3 0
52 -47 110 -105z"/>
</g>
</svg>
